<?xml version="1.0" encoding="UTF-8" standalone="no"?>
<!-- Created with Inkscape (http://www.inkscape.org/) -->

<svg
   width="101.85885mm"
   height="79.102242mm"
   viewBox="0 0 101.85885 79.102242"
   version="1.1"
   id="svg1909"
   xmlns="http://www.w3.org/2000/svg"
   xmlns:svg="http://www.w3.org/2000/svg">
  <defs
     id="defs1906" />
  <g
     id="layer1"
     transform="translate(-54.771512,-70.383261)">
    <path
       id="rect4179"
       style="opacity:1;fill:#3775c8;fill-opacity:1;stroke:none;stroke-width:0.272766"
       d="m 78.585341,70.383263 h 54.231399 c 6.88922,0 12.43542,5.546195 12.43542,12.435416 v 54.231401 c 0,6.88922 -5.5462,12.43542 -12.43542,12.43542 H 78.585341 c -6.88922,0 -12.435416,-5.5462 -12.435416,-12.43542 V 82.818679 c 0,-6.889221 5.546196,-12.435416 12.435416,-12.435416 z" />
    <path
       id="path7960"
       style="opacity:1;fill:#cccccc;fill-opacity:1;stroke:none;stroke-width:0.272766"
       d="m 78.585384,70.383301 c -6.889213,0 -12.435417,5.546202 -12.435417,12.435416 V 101.6 H 145.25212 V 82.818717 c 0,-6.889214 -5.54621,-12.435416 -12.43542,-12.435416 z" />
    <path
       id="path9677"
       style="opacity:0.492064;fill:#173050;fill-opacity:1;stroke:none;stroke-width:0.264583"
       d="m 105.70104,101.6 -39.551073,8.33437 68.312113,39.44049 c 6.10528,-0.80091 10.79004,-5.99407 10.79004,-12.32483 v -27.11566 z" />
    <path
       id="path14071"
       style="opacity:1;fill:#999999;fill-opacity:1;stroke:none;stroke-width:0.272766"
       d="m 67.887329,83.903406 c -0.595062,0 -1.174504,0.01251 -1.737362,0.03617 V 101.6 H 145.25212 V 83.939579 c -0.56285,-0.02366 -1.14232,-0.03617 -1.73737,-0.03617 z" />
    <path
       id="path4182"
       style="opacity:1;fill:#264ea2;fill-opacity:1;stroke:none;stroke-width:0.272766"
       d="m 67.8873,87.3432 c -9.6072,0 -15.1472,3.1584 -12.4216,7.0817 l 10.6904,15.3871 h 79.0899 l 10.69,-15.3871 c 2.726,-3.9233 -2.814,-7.0817 -12.421,-7.0817 z" />
    <path
       id="path15580"
       style="opacity:0.910053;fill:#666666;fill-opacity:1;stroke:none;stroke-width:0.264583"
       d="m 95.11771,73.81875 a 3.4395833,3.4395833 0 0 0 -3.439583,3.439583 3.4395833,3.4395833 0 0 0 3.439583,3.439584 3.4395833,3.4395833 0 0 0 3.439583,-3.439584 3.4395833,3.4395833 0 0 0 -3.439583,-3.439583 z m 21.16667,0 a 3.4395833,3.4395833 0 0 0 -3.43959,3.439583 3.4395833,3.4395833 0 0 0 3.43959,3.439584 3.4395833,3.4395833 0 0 0 3.43958,-3.439584 3.4395833,3.4395833 0 0 0 -3.43958,-3.439583 z" />
    <path
       id="text15858"
       style="font-style:normal;font-variant:normal;font-weight:bold;font-stretch:normal;font-size:48.9148px;font-family:'Chalkboard SE';-inkscape-font-specification:'Chalkboard SE, Bold';font-variant-ligatures:normal;font-variant-caps:normal;font-variant-numeric:normal;font-variant-east-asian:normal;opacity:0.910053;fill:#ffffff;fill-opacity:1;stroke:none;stroke-width:0.917152;stroke-opacity:1"
       d="m 106.55009,109.8119 c -0.47374,0.40763 -0.97395,0.78898 -1.50741,1.13688 -0.82875,0.5405 -1.53135,0.97279 -2.10788,1.29708 -1.26115,0.75669 -2.37832,1.54939 -3.351214,2.37815 -0.936857,0.79273 -1.747784,1.67553 -2.43241,2.64842 -0.684626,0.97289 -1.242954,2.05412 -1.67535,3.24321 -0.432396,1.18909 -0.756869,2.52241 -0.973067,3.99976 -0.07207,0.61256 -0.17988,1.22505 -0.324011,1.83761 -0.108099,0.61256 -0.09039,1.22505 0.05374,1.83761 0.180165,0.79273 0.576514,1.45939 1.189075,1.99988 0.61256,0.5405 1.333383,0.81081 2.162142,0.81081 h 12.863815 c 1.36925,0 2.5583,-0.3427 3.56723,-1.02733 1.00892,-0.68463 1.92766,-1.53149 2.75642,-2.54041 0.43239,-0.50447 0.64905,-1.06279 0.64905,-1.67535 0.036,-0.6486 -0.0723,-1.24286 -0.32453,-1.78336 -0.25223,-0.54049 -0.63035,-0.99101 -1.13481,-1.35134 -0.46843,-0.39636 -1.00905,-0.6125 -1.62161,-0.64854 -0.86479,-0.0721 -1.54967,0.12585 -2.05413,0.59428 -0.39208,0.36191 -0.81525,0.77056 -1.25781,1.2082 -0.77646,0.2403 -1.65268,0.39762 -2.63343,0.46767 -0.97289,0.0721 -1.92808,0.0898 -2.86494,0.0537 -0.90082,-0.036 -1.74769,-0.0902 -2.54041,-0.16226 -0.7567,-0.0721 -1.33325,-0.108 -1.72961,-0.108 0.21619,-1.11703 0.649,-2.0717 1.29759,-2.86443 0.68463,-0.79272 1.4591,-1.51355 2.32389,-2.16214 0.90082,-0.64859 1.81956,-1.24286 2.75642,-1.78336 0.97289,-0.54049 1.85569,-1.09933 2.64842,-1.67586 1.29718,-0.93686 2.34248,-2.01758 3.13521,-3.2427 0.54018,-0.79854 0.97121,-1.62845 1.29708,-2.48822 z" />
    <path
       id="text16588"
       style="font-style:normal;font-variant:normal;font-weight:bold;font-stretch:normal;font-size:48.9148px;font-family:'Chalkboard SE';-inkscape-font-specification:'Chalkboard SE, Bold';font-variant-ligatures:normal;font-variant-caps:normal;font-variant-numeric:normal;font-variant-east-asian:normal;opacity:0.910053;fill:#cccccc;fill-opacity:1;stroke:none;stroke-width:0.917152;stroke-opacity:1"
       d="m 107.195,101.429 c -1.746,-0.002 -3.509,0.117 -5.263,0.356 -1.9691,0.253 -3.7166,0.632 -5.2218,1.138 -0.6202,0.211 -1.3748,0.485 -2.2528,0.822 -0.8032,0.337 -1.4434,0.716 -1.9213,1.138 -0.4648,0.4 -0.668,0.832 -0.6201,1.295 0.0991,0.464 0.6334,0.917 1.5749,1.359 1.0732,0.527 1.9834,0.791 2.7619,0.791 0.8174,0 1.5725,-0.127 2.2792,-0.38 0.7264,-0.252 1.4172,-0.569 2.078,-0.948 0.73,-0.379 1.434,-0.674 2.1,-0.885 1.415,-0.463 2.723,-0.674 3.878,-0.632 1.154,0.021 2.042,0.401 2.631,1.138 0.432,0.506 0.397,1.001 -0.072,1.485 -0.41,0.464 -1.005,0.896 -1.776,1.296 -0.268,0.143 -0.544,0.278 -0.821,0.41 h 8.168 c 0.321,-0.269 0.622,-0.542 0.895,-0.821 0.805,-0.8 1.344,-1.622 1.583,-2.465 0.218,-0.843 0.069,-1.675 -0.485,-2.497 -0.65,-0.864 -1.771,-1.495 -3.346,-1.896 -1.57,-0.421 -3.389,-0.653 -5.423,-0.695 -0.248,-0.005 -0.497,-0.008 -0.747,-0.009 z" />
  </g>
</svg>
