<?xml version="1.0" encoding="UTF-8" standalone="no"?>
<!-- Created with Inkscape (http://www.inkscape.org/) -->

<svg
   width="53.005585mm"
   height="81.282364mm"
   viewBox="0 0 53.005585 81.282364"
   version="1.1"
   id="svg5"
   xml:space="preserve"
   inkscape:version="1.2.1 (9c6d41e, 2022-07-14)"
   sodipodi:docname="tikkalogo.svg"
   xmlns:inkscape="http://www.inkscape.org/namespaces/inkscape"
   xmlns:sodipodi="http://sodipodi.sourceforge.net/DTD/sodipodi-0.dtd"
   xmlns="http://www.w3.org/2000/svg"
   xmlns:svg="http://www.w3.org/2000/svg"><sodipodi:namedview
     id="namedview7"
     pagecolor="#ffffff"
     bordercolor="#000000"
     borderopacity="0.25"
     inkscape:showpageshadow="2"
     inkscape:pageopacity="0.0"
     inkscape:pagecheckerboard="false"
     inkscape:deskcolor="#d1d1d1"
     inkscape:document-units="px"
     showgrid="false"
     showborder="false"
     inkscape:lockguides="false"
     inkscape:zoom="1.2911109"
     inkscape:cx="365.96392"
     inkscape:cy="331.88474"
     inkscape:window-width="1440"
     inkscape:window-height="847"
     inkscape:window-x="1921"
     inkscape:window-y="25"
     inkscape:window-maximized="0"
     inkscape:current-layer="layer1" /><defs
     id="defs2" /><g
     inkscape:label="Layer 1"
     inkscape:groupmode="layer"
     id="layer1"
     transform="translate(-66.315111,-33.072917)"><g
       id="g13034"
       transform="matrix(1,0,0,0.72130584,-39.228684,28.614141)"
       inkscape:export-filename="../source/web-visualizations/FinalAssignment/images/logo.svg"
       inkscape:export-xdpi="96"
       inkscape:export-ydpi="96"><path
         id="path12959"
         style="opacity:1;fill:#017bc2;stroke-width:0.417333"
         d="M 141.24243,89.573341 A 17.849316,10.252125 0 0 1 123.39311,99.825466 17.849316,10.252125 0 0 1 105.5438,89.573341 17.849316,10.252125 0 0 1 123.39311,79.321217 17.849316,10.252125 0 0 1 141.24243,89.573341 Z" /><path
         id="ellipse13030"
         style="opacity:1;fill:#ffffff;stroke-width:0.302748"
         d="m 136.95306,89.573341 a 13.559948,7.101953 0 0 1 -13.55995,7.101953 13.559948,7.101953 0 0 1 -13.55995,-7.101953 13.559948,7.101953 0 0 1 13.55995,-7.101953 13.559948,7.101953 0 0 1 13.55995,7.101953 z" /></g><path
       style="opacity:1;fill:#ce003e;fill-opacity:1;stroke-width:0.264583"
       d="m 86.217862,102.91975 -1.20374,2.70841 h 17.604688 z"
       id="path10243" /><path
       style="opacity:1;fill:#ce003e;fill-opacity:1;stroke-width:0.264583"
       d="m 84.261778,106.98237 -1.05327,2.40748 24.977592,-0.15046 z"
       id="path10245" /><path
       style="opacity:1;fill:#ce003e;fill-opacity:1;stroke-width:0.264583"
       d="m 82.60664,110.59359 -1.50467,3.76169 38.21873,-0.15047 z"
       id="path10247" /><path
       style="opacity:1;fill:#ce003e;fill-opacity:1;stroke-width:0.264583"
       d="m 114.3,33.072917 -42.068754,11.906249 25.13542,2.38125 -17.72709,9.260417 L 79.374996,114.3 Z"
       id="path10037" /><path
       id="path10597"
       style="opacity:1;fill:#ffffff;stroke-width:0.0943389"
       d="m 105.16887,41.46872 a 1.8682854,3.4820573 59.155927 0 1 -4.31917,0.987724 1.8682854,3.4820573 59.155927 0 1 1.0271,-3.247255 1.8682854,3.4820573 59.155927 0 1 4.31917,-0.987721 1.8682854,3.4820573 59.155927 0 1 -1.0271,3.247252 z" /><path
       style="opacity:1;fill:#ffffff;fill-opacity:1;stroke-width:0.264583"
       d="m 103.98125,54.76875 -17.727093,11.1125 -6.08541,44.45 z"
       id="path10039" /><path
       id="path10683"
       style="opacity:1;fill:#000000;stroke-width:0.0713652"
       d="m 101.94142,40.546903 a 1.4102454,2.6398113 59.565298 0 0 -1.40947,0.320579 1.8682854,3.4820573 59.155927 0 0 0.31777,1.588792 1.8682854,3.4820573 59.155927 0 0 1.66201,0.234237 1.4102454,2.6398113 59.565298 0 0 0.23278,-1.931171 1.4102454,2.6398113 59.565298 0 0 -0.80309,-0.212437 z" /><path
       id="path13312"
       style="opacity:1;fill:#ffffff;fill-opacity:1;stroke-width:0.211014;stroke-dasharray:none"
       d="m 78.837949,97.491014 -0.01344,3.139376 a 21.808449,10.272082 0 0 0 7.170952,0.40487 l 1.25906,-3.139387 a 17.13521,7.4553191 0 0 1 -8.41657,-0.404859 z" /><path
       id="path13251"
       style="opacity:1;fill:#017bc2;fill-opacity:1;stroke-width:0.164534;stroke-dasharray:none"
       d="m 66.48532,92.76832 a 17.606575,7.7356768 0 0 0 8.604707,6.79855 17.606575,7.7356768 0 0 0 17.703847,0.07493 17.606575,7.7356768 0 0 0 8.901356,-6.72414 h -3.866033 a 13.833737,5.6144352 0 0 1 -6.979391,4.68499 13.833737,5.6144352 0 0 1 -13.91039,-0.05478 13.833737,5.6144352 0 0 1 -6.755319,-4.74803 z" /></g></svg>
